{
  "extensionsUsed": [
    "KHR_texture_transform"
  ],
  "accessors": [
    {
      "bufferView": 0,
      "componentType": 5126,
      "count": 121,
      "type": "VEC3",
      "max": [
        5.0,
        1.1102230246251565E-16,
        5.0
      ],
      "min": [
        -5.0,
        -1.1102230246251565E-16,
        -5.0
      ]
    },
    {
      "bufferView": 1,
      "componentType": 5126,
      "count": 121,
      "type": "VEC3",
      "max": [
        0.0,
        1.0,
        0.0
      ],
      "min": [
        0.0,
        1.0,
        0.0
      ]
    },
    {
      "bufferView": 2,
      "componentType": 5126,
      "count": 121,
      "type": "VEC4",
      "max": [
        -1.0,
        0.0,
        0.0,
        -1.0
      ],
      "min": [
        -1.0,
        0.0,
        0.0,
        -1.0
      ]
    },
    {
      "bufferView": 3,
      "componentType": 5126,
      "count": 121,
      "type": "VEC2",
      "max": [
        1.0,
        1.0
      ],
      "min": [
        0.0,
        0.0
      ]
    },
    {
      "bufferView": 4,
      "componentType": 5125,
      "count": 600,
      "type": "SCALAR",
      "max": [
        120.0
      ],
      "min": [
        0.0
      ]
    },
    {
      "bufferView": 5,
      "componentType": 5126,
      "count": 24,
      "type": "VEC3",
      "max": [
        0.5,
        0.5,
        0.5
      ],
      "min": [
        -0.5,
        -0.5,
        -0.5
      ]
    },
    {
      "bufferView": 6,
      "componentType": 5126,
      "count": 24,
      "type": "VEC3",
      "max": [
        1.0,
        1.0,
        1.0
      ],
      "min": [
        -1.0,
        -1.0,
        -1.0
      ]
    },
    {
      "bufferView": 7,
      "componentType": 5126,
      "count": 24,
      "type": "VEC4",
      "max": [
        0.0,
        0.0,
        1.0,
        -1.0
      ],
      "min": [
        -1.0,
        0.0,
        -1.0,
        -1.0
      ]
    },
    {
      "bufferView": 8,
      "componentType": 5126,
      "count": 24,
      "type": "VEC2",
      "max": [
        1.0,
        1.0
      ],
      "min": [
        0.0,
        0.0
      ]
    },
    {
      "bufferView": 9,
      "componentType": 5126,
      "count": 24,
      "type": "VEC2",
      "max": [
        0.9966580867767334,
        0.65283584594726563
      ],
      "min": [
        0.0040557663887739182,
        0.0040557663887739182
      ]
    },
    {
      "bufferView": 10,
      "componentType": 5125,
      "count": 36,
      "type": "SCALAR",
      "max": [
        23.0
      ],
      "min": [
        0.0
      ]
    }
  ],
  "asset": {
    "generator": "Plattar UnityGLTF (2021.3.1f1)",
    "version": "2.0"
  },
  "buffers": [
    {
      "uri": "maze.bin",
      "byteLength": 9696
    }
  ],
  "bufferViews": [
    {
      "buffer": 0,
      "byteLength": 1452
    },
    {
      "buffer": 0,
      "byteOffset": 1452,
      "byteLength": 1452
    },
    {
      "buffer": 0,
      "byteOffset": 2904,
      "byteLength": 1936
    },
    {
      "buffer": 0,
      "byteOffset": 4840,
      "byteLength": 968
    },
    {
      "buffer": 0,
      "byteOffset": 5808,
      "byteLength": 2400
    },
    {
      "buffer": 0,
      "byteOffset": 8208,
      "byteLength": 288
    },
    {
      "buffer": 0,
      "byteOffset": 8496,
      "byteLength": 288
    },
    {
      "buffer": 0,
      "byteOffset": 8784,
      "byteLength": 384
    },
    {
      "buffer": 0,
      "byteOffset": 9168,
      "byteLength": 192
    },
    {
      "buffer": 0,
      "byteOffset": 9360,
      "byteLength": 192
    },
    {
      "buffer": 0,
      "byteOffset": 9552,
      "byteLength": 144
    }
  ],
  "images": [
    {
      "uri": "grass texture.jpg",
      "name": "grass texture"
    },
    {
      "uri": "wall texture.jpg",
      "name": "wall texture"
    }
  ],
  "materials": [
    {
      "pbrMetallicRoughness": {
        "baseColorTexture": {
          "index": 0
        },
        "metallicFactor": 0.0,
        "roughnessFactor": 0.5
      },
      "doubleSided": true,
      "name": "grass texture"
    },
    {
      "pbrMetallicRoughness": {
        "baseColorTexture": {
          "index": 1,
          "extensions": {
            "KHR_texture_transform": {
              "scale": [
                10.0,
                2.0
              ]
            }
          }
        },
        "metallicFactor": 0.0,
        "roughnessFactor": 0.5
      },
      "doubleSided": true,
      "name": "wall texture"
    }
  ],
  "meshes": [
    {
      "primitives": [
        {
          "attributes": {
            "POSITION": 0,
            "NORMAL": 1,
            "TANGENT": 2,
            "TEXCOORD_0": 3
          },
          "indices": 4,
          "material": 0
        }
      ],
      "name": "Plane"
    },
    {
      "primitives": [
        {
          "attributes": {
            "POSITION": 5,
            "NORMAL": 6,
            "TANGENT": 7,
            "TEXCOORD_0": 8,
            "TEXCOORD_1": 9
          },
          "indices": 10,
          "material": 1
        }
      ],
      "name": "Cube"
    }
  ],
  "nodes": [
    {
      "children": [
        1,
        2,
        3,
        4,
        5,
        6,
        7,
        8,
        9,
        10,
        11,
        12,
        13,
        14,
        15,
        16,
        17,
        18,
        19,
        20,
        21,
        22,
        23,
        24,
        25,
        26,
        27,
        28,
        29,
        30,
        31,
        32,
        33,
        34,
        35,
        36,
        37,
        38,
        39,
        40,
        41,
        42,
        43,
        44,
        45,
        46,
        47,
        48,
        49,
        50,
        51,
        52,
        53,
        54,
        55,
        56,
        57,
        58,
        59,
        60
      ],
      "rotation": [
        0.0,
        0.0,
        0.0,
        -1.0
      ],
      "translation": [
        1.34680986,
        1.305244,
        -2.58253145
      ],
      "name": "maze"
    },
    {
      "mesh": 0,
      "rotation": [
        0.0,
        0.0,
        0.0,
        -1.0
      ],
      "translation": [
        -1.335,
        -1.318,
        2.58253145
      ],
      "name": "Plane"
    },
    {
      "mesh": 1,
      "rotation": [
        0.0,
        0.0,
        0.0,
        -1.0
      ],
      "scale": [
        6.8,
        2.0,
        0.1
      ],
      "translation": [
        -1.31680989,
        -0.305243969,
        5.90253162
      ],
      "name": "Cube"
    },
    {
      "mesh": 1,
      "rotation": [
        0.0,
        0.0,
        0.0,
        -1.0
      ],
      "scale": [
        6.6,
        2.0,
        0.1
      ],
      "translation": [
        -1.29680991,
        -0.305243969,
        -0.8574686
      ],
      "name": "Cube (1)"
    },
    {
      "mesh": 1,
      "rotation": [
        0.0,
        0.7071068,
        0.0,
        -0.7071068
      ],
      "scale": [
        6.0,
        2.0,
        0.100000009
      ],
      "translation": [
        2.09319019,
        -0.305243969,
        2.94253159
      ],
      "name": "Cube (2)"
    },
    {
      "mesh": 1,
      "rotation": [
        0.0,
        0.7071068,
        0.0,
        -0.7071068
      ],
      "scale": [
        6.0,
        2.0,
        0.100000009
      ],
      "translation": [
        -4.63681,
        -0.305243969,
        2.08253145
      ],
      "name": "Cube (3)"
    },
    {
      "mesh": 1,
      "rotation": [
        0.0,
        0.7071068,
        0.0,
        -0.7071068
      ],
      "scale": [
        0.5,
        2.0,
        0.100000009
      ],
      "translation": [
        -2.72681,
        -0.305243969,
        5.592531
      ],
      "name": "Cube (4)"
    },
    {
      "mesh": 1,
      "rotation": [
        0.0,
        0.7071068,
        0.0,
        -0.7071068
      ],
      "scale": [
        0.8000001,
        2.0,
        0.100000009
      ],
      "translation": [
        -1.33680987,
        -0.305243969,
        5.51253128
      ],
      "name": "Cube (5)"
    },
    {
      "mesh": 1,
      "rotation": [
        0.0,
        0.7071068,
        0.0,
        -0.7071068
      ],
      "scale": [
        0.59,
        2.0,
        0.100000009
      ],
      "translation": [
        0.08319008,
        -0.305243969,
        5.60253143
      ],
      "name": "Cube (6)"
    },
    {
      "mesh": 1,
      "rotation": [
        0.0,
        0.7071068,
        0.0,
        -0.7071068
      ],
      "scale": [
        0.75000006,
        2.0,
        0.100000009
      ],
      "translation": [
        0.08319008,
        -0.305243969,
        0.8725314
      ],
      "name": "Cube (7)"
    },
    {
      "mesh": 1,
      "rotation": [
        0.0,
        0.7071068,
        0.0,
        -0.7071068
      ],
      "scale": [
        0.770000041,
        2.0,
        0.100000009
      ],
      "translation": [
        -0.556809843,
        -0.32524395,
        4.922531
      ],
      "name": "Cube (8)"
    },
    {
      "mesh": 1,
      "rotation": [
        0.0,
        0.7071068,
        0.0,
        -0.7071068
      ],
      "scale": [
        0.8000001,
        2.0,
        0.100000009
      ],
      "translation": [
        -1.95680988,
        -0.32524395,
        5.0725317
      ],
      "name": "Cube (9)"
    },
    {
      "mesh": 1,
      "rotation": [
        0.0,
        0.7071068,
        0.0,
        -0.7071068
      ],
      "scale": [
        1.50000012,
        2.0,
        0.100000009
      ],
      "translation": [
        -3.27680969,
        -0.32524395,
        1.99253154
      ],
      "name": "Cube (10)"
    },
    {
      "mesh": 1,
      "rotation": [
        0.0,
        0.7071068,
        0.0,
        -0.7071068
      ],
      "scale": [
        1.29999983,
        2.0,
        0.100000009
      ],
      "translation": [
        1.34319019,
        -0.32524395,
        4.68253136
      ],
      "name": "Cube (11)"
    },
    {
      "mesh": 1,
      "rotation": [
        0.0,
        0.7071068,
        0.0,
        -0.7071068
      ],
      "scale": [
        1.39999986,
        2.0,
        0.100000009
      ],
      "translation": [
        1.37319016,
        -0.305243969,
        2.62253141
      ],
      "name": "Cube (12)"
    },
    {
      "mesh": 1,
      "rotation": [
        0.0,
        0.7071068,
        0.0,
        -0.7071068
      ],
      "scale": [
        1.39999986,
        2.0,
        0.100000009
      ],
      "translation": [
        -0.6968099,
        -0.32524395,
        2.57253146
      ],
      "name": "Cube (13)"
    },
    {
      "mesh": 1,
      "rotation": [
        0.0,
        0.7071068,
        0.0,
        -0.7071068
      ],
      "scale": [
        1.39999986,
        2.0,
        0.100000009
      ],
      "translation": [
        -0.7068099,
        -0.32524395,
        0.5525315
      ],
      "name": "Cube (14)"
    },
    {
      "mesh": 1,
      "rotation": [
        0.0,
        0.7071068,
        0.0,
        -0.7071068
      ],
      "scale": [
        0.75000006,
        2.0,
        0.100000009
      ],
      "translation": [
        0.6631901,
        -0.32524395,
        5.00253153
      ],
      "name": "Cube (15)"
    },
    {
      "mesh": 1,
      "rotation": [
        0.0,
        0.7071068,
        0.0,
        -0.7071068
      ],
      "scale": [
        1.39999986,
        2.0,
        0.100000009
      ],
      "translation": [
        -2.08680987,
        -0.32524395,
        3.2825315
      ],
      "name": "Cube (16)"
    },
    {
      "mesh": 1,
      "rotation": [
        0.0,
        0.7071068,
        0.0,
        -0.7071068
      ],
      "scale": [
        1.29999983,
        2.0,
        0.100000009
      ],
      "translation": [
        -4.00681,
        -0.32524395,
        1.8825314
      ],
      "name": "Cube (17)"
    },
    {
      "mesh": 1,
      "rotation": [
        0.0,
        0.7071068,
        0.0,
        -0.7071068
      ],
      "scale": [
        0.8000001,
        2.0,
        0.100000009
      ],
      "translation": [
        -4.02680969,
        -0.32524395,
        4.29253149
      ],
      "name": "Cube (18)"
    },
    {
      "mesh": 1,
      "rotation": [
        0.0,
        0.7071068,
        0.0,
        -0.7071068
      ],
      "scale": [
        0.8000001,
        2.0,
        0.100000009
      ],
      "translation": [
        -1.92680979,
        -0.32524395,
        -0.4574685
      ],
      "name": "Cube (19)"
    },
    {
      "mesh": 1,
      "rotation": [
        0.0,
        0.7071068,
        0.0,
        -0.7071068
      ],
      "scale": [
        0.8000001,
        2.0,
        0.100000009
      ],
      "translation": [
        0.07319009,
        -0.32524395,
        4.382531
      ],
      "name": "Cube (20)"
    },
    {
      "mesh": 1,
      "rotation": [
        0.0,
        0.7071068,
        0.0,
        -0.7071068
      ],
      "scale": [
        0.8000001,
        2.0,
        0.100000009
      ],
      "translation": [
        0.04319012,
        -0.305243969,
        2.14253139
      ],
      "name": "Cube (21)"
    },
    {
      "mesh": 1,
      "rotation": [
        0.0,
        0.7071068,
        0.0,
        -0.7071068
      ],
      "scale": [
        0.75000006,
        2.0,
        0.100000009
      ],
      "translation": [
        1.36319017,
        -0.305243969,
        0.20153141
      ],
      "name": "Cube (22)"
    },
    {
      "mesh": 1,
      "rotation": [
        0.0,
        0.7071068,
        0.0,
        -0.7071068
      ],
      "scale": [
        0.75000006,
        2.0,
        0.100000009
      ],
      "translation": [
        -2.03681,
        -0.305243969,
        0.9025315
      ],
      "name": "Cube (23)"
    },
    {
      "mesh": 1,
      "rotation": [
        0.0,
        0.7071068,
        0.0,
        -0.7071068
      ],
      "scale": [
        0.75000006,
        2.0,
        0.100000009
      ],
      "translation": [
        -1.29680991,
        -0.305243969,
        0.852531433
      ],
      "name": "Cube (24)"
    },
    {
      "mesh": 1,
      "rotation": [
        0.0,
        0.7071068,
        0.0,
        -0.7071068
      ],
      "scale": [
        0.75000006,
        2.0,
        0.100000009
      ],
      "translation": [
        -3.40680981,
        -0.375243962,
        3.55253148
      ],
      "name": "Cube (25)"
    },
    {
      "mesh": 1,
      "rotation": [
        0.0,
        0.7071068,
        0.0,
        -0.7071068
      ],
      "scale": [
        0.75000006,
        2.0,
        0.100000009
      ],
      "translation": [
        -2.73680973,
        -0.375243962,
        4.342531
      ],
      "name": "Cube (26)"
    },
    {
      "mesh": 1,
      "rotation": [
        0.0,
        0.7071068,
        0.0,
        -0.7071068
      ],
      "scale": [
        0.75000006,
        2.0,
        0.100000009
      ],
      "translation": [
        -2.62680984,
        -0.375243962,
        0.162531376
      ],
      "name": "Cube (27)"
    },
    {
      "mesh": 1,
      "rotation": [
        0.0,
        0.7071068,
        0.0,
        -0.7071068
      ],
      "scale": [
        0.75000006,
        2.0,
        0.100000009
      ],
      "translation": [
        -3.43680978,
        -0.166243911,
        0.202531338
      ],
      "name": "Cube (28)"
    },
    {
      "mesh": 1,
      "rotation": [
        0.0,
        0.7071068,
        0.0,
        -0.7071068
      ],
      "scale": [
        0.75000006,
        2.0,
        0.100000009
      ],
      "translation": [
        -3.93680978,
        -0.265244,
        -0.407468557
      ],
      "name": "Cube (29)"
    },
    {
      "mesh": 1,
      "rotation": [
        0.0,
        0.7071068,
        0.0,
        -0.7071068
      ],
      "scale": [
        1.39999986,
        2.0,
        0.100000009
      ],
      "translation": [
        -2.63680983,
        -0.32524395,
        2.57253146
      ],
      "name": "Cube (30)"
    },
    {
      "mesh": 1,
      "rotation": [
        0.0,
        0.7071068,
        0.0,
        -0.7071068
      ],
      "scale": [
        0.8000001,
        2.0,
        0.100000009
      ],
      "translation": [
        0.793190241,
        -0.32524395,
        3.64253139
      ],
      "name": "Cube (31)"
    },
    {
      "mesh": 1,
      "rotation": [
        0.0,
        0.7071068,
        0.0,
        -0.7071068
      ],
      "scale": [
        1.39999986,
        2.0,
        0.100000009
      ],
      "translation": [
        -1.31680989,
        -0.32524395,
        3.97253132
      ],
      "name": "Cube (32)"
    },
    {
      "mesh": 1,
      "rotation": [
        0.0,
        0.0,
        0.0,
        -1.0
      ],
      "scale": [
        1.1,
        2.0,
        0.1
      ],
      "translation": [
        -4.00681,
        -0.305243969,
        0.5525315
      ],
      "name": "Cube (33)"
    },
    {
      "mesh": 1,
      "rotation": [
        0.0,
        0.0,
        0.0,
        -1.0
      ],
      "scale": [
        1.2,
        2.0,
        0.1
      ],
      "translation": [
        -2.66681,
        -0.305243969,
        1.24253142
      ],
      "name": "Cube (34)"
    },
    {
      "mesh": 1,
      "rotation": [
        0.0,
        0.0,
        0.0,
        -1.0
      ],
      "scale": [
        1.1,
        2.0,
        0.1
      ],
      "translation": [
        0.8431902,
        -0.305243969,
        -0.137468576
      ],
      "name": "Cube (35)"
    },
    {
      "mesh": 1,
      "rotation": [
        0.0,
        0.0,
        0.0,
        -1.0
      ],
      "scale": [
        1.4,
        2.0,
        0.1
      ],
      "translation": [
        1.3331902,
        -0.305243969,
        1.30253148
      ],
      "name": "Cube (36)"
    },
    {
      "mesh": 1,
      "rotation": [
        0.0,
        0.0,
        0.0,
        -1.0
      ],
      "scale": [
        1.4,
        2.0,
        0.1
      ],
      "translation": [
        0.6831901,
        -0.305243969,
        3.29253149
      ],
      "name": "Cube (37)"
    },
    {
      "mesh": 1,
      "rotation": [
        0.0,
        0.0,
        0.0,
        -1.0
      ],
      "scale": [
        1.4,
        2.0,
        0.1
      ],
      "translation": [
        0.0031901598,
        -0.305243969,
        2.56253147
      ],
      "name": "Cube (38)"
    },
    {
      "mesh": 1,
      "rotation": [
        0.0,
        0.0,
        0.0,
        -1.0
      ],
      "scale": [
        1.4,
        2.0,
        0.1
      ],
      "translation": [
        -0.616809845,
        -0.305243969,
        3.97253132
      ],
      "name": "Cube (39)"
    },
    {
      "mesh": 1,
      "rotation": [
        0.0,
        0.0,
        0.0,
        -1.0
      ],
      "scale": [
        2.0,
        2.0,
        0.1
      ],
      "translation": [
        -2.31681,
        -0.305243969,
        4.64253139
      ],
      "name": "Cube (40)"
    },
    {
      "mesh": 1,
      "rotation": [
        0.0,
        0.0,
        0.0,
        -1.0
      ],
      "scale": [
        1.5,
        2.0,
        0.1
      ],
      "translation": [
        -3.4168098,
        -0.305243969,
        5.342531
      ],
      "name": "Cube (41)"
    },
    {
      "mesh": 1,
      "rotation": [
        0.0,
        0.0,
        0.0,
        -1.0
      ],
      "scale": [
        2.0,
        2.0,
        0.1
      ],
      "translation": [
        -3.05681,
        -0.305243969,
        3.89253139
      ],
      "name": "Cube (42)"
    },
    {
      "mesh": 1,
      "rotation": [
        0.0,
        0.0,
        0.0,
        -1.0
      ],
      "scale": [
        0.75,
        2.0,
        0.1
      ],
      "translation": [
        -1.59780979,
        -0.305243969,
        -0.0924685
      ],
      "name": "Cube (43)"
    },
    {
      "mesh": 1,
      "rotation": [
        0.0,
        0.0,
        0.0,
        -1.0
      ],
      "scale": [
        0.75,
        2.0,
        0.1
      ],
      "translation": [
        -1.07680988,
        -0.305243969,
        1.90253139
      ],
      "name": "Cube (44)"
    },
    {
      "mesh": 1,
      "rotation": [
        0.0,
        0.0,
        0.0,
        -1.0
      ],
      "scale": [
        0.75,
        2.0,
        0.1
      ],
      "translation": [
        -3.05681,
        -0.305243969,
        -0.157468557
      ],
      "name": "Cube (45)"
    },
    {
      "mesh": 1,
      "rotation": [
        0.0,
        0.0,
        0.0,
        -1.0
      ],
      "scale": [
        0.75,
        2.0,
        0.1
      ],
      "translation": [
        -1.70680988,
        -0.305243969,
        2.61253142
      ],
      "name": "Cube (46)"
    },
    {
      "mesh": 1,
      "rotation": [
        0.0,
        0.0,
        0.0,
        -1.0
      ],
      "scale": [
        0.7,
        2.0,
        0.1
      ],
      "translation": [
        -0.98680985,
        -0.305243969,
        3.32253146
      ],
      "name": "Cube (47)"
    },
    {
      "mesh": 1,
      "rotation": [
        0.0,
        0.0,
        0.0,
        -1.0
      ],
      "scale": [
        0.6,
        2.0,
        0.1
      ],
      "translation": [
        0.363190174,
        -0.305243969,
        4.62253141
      ],
      "name": "Cube (48)"
    },
    {
      "mesh": 1,
      "rotation": [
        0.0,
        0.0,
        0.0,
        -1.0
      ],
      "scale": [
        0.7,
        2.0,
        0.1
      ],
      "translation": [
        -0.196809888,
        -0.305243969,
        5.25253153
      ],
      "name": "Cube (49)"
    },
    {
      "mesh": 1,
      "rotation": [
        0.0,
        0.0,
        0.0,
        -1.0
      ],
      "scale": [
        0.75,
        2.0,
        0.1
      ],
      "translation": [
        -2.28681,
        -0.305243969,
        1.86253142
      ],
      "name": "Cube (50)"
    },
    {
      "mesh": 1,
      "rotation": [
        0.0,
        0.0,
        0.0,
        -1.0
      ],
      "scale": [
        0.75,
        2.0,
        0.1
      ],
      "translation": [
        -3.69680977,
        -0.305243969,
        3.25253153
      ],
      "name": "Cube (51)"
    },
    {
      "mesh": 1,
      "rotation": [
        0.0,
        0.0,
        0.0,
        -1.0
      ],
      "scale": [
        0.6,
        2.0,
        0.1
      ],
      "translation": [
        -4.29681,
        -0.305243969,
        2.55253148
      ],
      "name": "Cube (52)"
    },
    {
      "mesh": 1,
      "rotation": [
        0.0,
        0.0,
        0.0,
        -1.0
      ],
      "scale": [
        0.6,
        2.0,
        0.1
      ],
      "translation": [
        -4.33681,
        -0.305243969,
        4.632531
      ],
      "name": "Cube (53)"
    },
    {
      "mesh": 1,
      "rotation": [
        0.0,
        0.0,
        0.0,
        -1.0
      ],
      "scale": [
        0.6,
        2.0,
        0.1
      ],
      "translation": [
        -1.02680993,
        -0.305243969,
        1.19253147
      ],
      "name": "Cube (54)"
    },
    {
      "mesh": 1,
      "rotation": [
        0.0,
        0.0,
        0.0,
        -1.0
      ],
      "scale": [
        0.7,
        2.0,
        0.1
      ],
      "translation": [
        1.02319,
        -0.305243969,
        1.92253137
      ],
      "name": "Cube (55)"
    },
    {
      "mesh": 1,
      "rotation": [
        0.0,
        0.0,
        0.0,
        -1.0
      ],
      "scale": [
        0.6,
        2.0,
        0.1
      ],
      "translation": [
        1.07319021,
        -0.305243969,
        3.9925313
      ],
      "name": "Cube (56)"
    },
    {
      "mesh": 1,
      "rotation": [
        0.0,
        0.0,
        0.0,
        -1.0
      ],
      "scale": [
        0.6,
        2.0,
        0.1
      ],
      "translation": [
        1.05319023,
        -0.305243969,
        0.5325315
      ],
      "name": "Cube (57)"
    },
    {
      "mesh": 1,
      "rotation": [
        0.0,
        0.0,
        0.0,
        -1.0
      ],
      "scale": [
        0.6999999,
        2.0,
        0.1
      ],
      "translation": [
        1.6931901,
        -0.305243969,
        5.292532
      ],
      "name": "Cube (58)"
    }
  ],
  "samplers": [
    {
      "minFilter": 9729
    }
  ],
  "scene": 0,
  "scenes": [
    {
      "nodes": [
        0
      ],
      "name": "maze"
    }
  ],
  "textures": [
    {
      "sampler": 0,
      "source": 0,
      "name": "grass texture"
    },
    {
      "sampler": 0,
      "source": 1,
      "name": "wall texture"
    }
  ]
}